<mxfile host="app.diagrams.net" modified="2023-09-12T13:53:12.929Z" agent="Mozilla/5.0 (Windows NT 10.0; Win64; x64) AppleWebKit/537.36 (KHTML, like Gecko) Chrome/116.0.0.0 Safari/537.36" etag="wxfXxvSfkpR8-zwC4kw2" version="21.7.4" type="github">
  <diagram name="第 1 页" id="oKkxI-fKdz2ocC894qj6">
    <mxGraphModel dx="1502" dy="600" grid="1" gridSize="10" guides="1" tooltips="1" connect="1" arrows="1" fold="1" page="1" pageScale="1" pageWidth="827" pageHeight="1169" math="0" shadow="0">
      <root>
        <mxCell id="0" />
        <mxCell id="1" parent="0" />
        <mxCell id="lifC318PrZKDhgt-QXer-1" value="" style="rounded=0;whiteSpace=wrap;html=1;" parent="1" vertex="1">
          <mxGeometry x="49" y="570" width="120" height="60" as="geometry" />
        </mxCell>
        <mxCell id="lifC318PrZKDhgt-QXer-2" value="" style="rounded=0;whiteSpace=wrap;html=1;" parent="1" vertex="1">
          <mxGeometry x="659" y="570" width="120" height="60" as="geometry" />
        </mxCell>
        <mxCell id="lifC318PrZKDhgt-QXer-3" value="" style="rounded=0;whiteSpace=wrap;html=1;" parent="1" vertex="1">
          <mxGeometry x="353" y="570" width="120" height="60" as="geometry" />
        </mxCell>
        <mxCell id="lifC318PrZKDhgt-QXer-7" value="Producer" style="text;html=1;strokeColor=none;fillColor=none;align=center;verticalAlign=middle;whiteSpace=wrap;rounded=0;" parent="1" vertex="1">
          <mxGeometry x="79" y="585" width="60" height="30" as="geometry" />
        </mxCell>
        <mxCell id="lifC318PrZKDhgt-QXer-8" value="game" style="text;html=1;strokeColor=none;fillColor=none;align=center;verticalAlign=middle;whiteSpace=wrap;rounded=0;" parent="1" vertex="1">
          <mxGeometry x="383" y="585" width="60" height="30" as="geometry" />
        </mxCell>
        <mxCell id="lifC318PrZKDhgt-QXer-9" value="player" style="text;html=1;strokeColor=none;fillColor=none;align=center;verticalAlign=middle;whiteSpace=wrap;rounded=0;" parent="1" vertex="1">
          <mxGeometry x="689" y="585" width="60" height="30" as="geometry" />
        </mxCell>
        <mxCell id="lifC318PrZKDhgt-QXer-10" value="" style="ellipse;whiteSpace=wrap;html=1;" parent="1" vertex="1">
          <mxGeometry x="199" y="280" width="100" height="50" as="geometry" />
        </mxCell>
        <mxCell id="lifC318PrZKDhgt-QXer-12" value="game_id" style="text;html=1;strokeColor=none;fillColor=none;align=center;verticalAlign=middle;whiteSpace=wrap;rounded=0;" parent="1" vertex="1">
          <mxGeometry x="219" y="290" width="60" height="30" as="geometry" />
        </mxCell>
        <mxCell id="lifC318PrZKDhgt-QXer-13" value="" style="strokeWidth=2;html=1;shape=mxgraph.flowchart.decision;whiteSpace=wrap;" parent="1" vertex="1">
          <mxGeometry x="220" y="570" width="100" height="60" as="geometry" />
        </mxCell>
        <mxCell id="lifC318PrZKDhgt-QXer-14" value="Produce" style="text;html=1;strokeColor=none;fillColor=none;align=center;verticalAlign=middle;whiteSpace=wrap;rounded=0;" parent="1" vertex="1">
          <mxGeometry x="240" y="585" width="60" height="30" as="geometry" />
        </mxCell>
        <mxCell id="lifC318PrZKDhgt-QXer-16" value="" style="strokeWidth=2;html=1;shape=mxgraph.flowchart.decision;whiteSpace=wrap;" parent="1" vertex="1">
          <mxGeometry x="520" y="570" width="100" height="60" as="geometry" />
        </mxCell>
        <mxCell id="lifC318PrZKDhgt-QXer-15" value="play" style="text;html=1;strokeColor=none;fillColor=none;align=center;verticalAlign=middle;whiteSpace=wrap;rounded=0;" parent="1" vertex="1">
          <mxGeometry x="540" y="585" width="60" height="30" as="geometry" />
        </mxCell>
        <mxCell id="lifC318PrZKDhgt-QXer-17" value="" style="edgeStyle=entityRelationEdgeStyle;fontSize=12;html=1;endArrow=ERoneToMany;rounded=0;exitX=1;exitY=0.5;exitDx=0;exitDy=0;exitPerimeter=0;entryX=0;entryY=0.5;entryDx=0;entryDy=0;" parent="1" source="lifC318PrZKDhgt-QXer-13" target="lifC318PrZKDhgt-QXer-3" edge="1">
          <mxGeometry width="100" height="100" relative="1" as="geometry">
            <mxPoint x="360" y="590" as="sourcePoint" />
            <mxPoint x="460" y="490" as="targetPoint" />
          </mxGeometry>
        </mxCell>
        <mxCell id="lifC318PrZKDhgt-QXer-18" value="" style="edgeStyle=entityRelationEdgeStyle;fontSize=12;html=1;endArrow=ERoneToMany;rounded=0;exitX=0;exitY=0.5;exitDx=0;exitDy=0;exitPerimeter=0;entryX=1;entryY=0.5;entryDx=0;entryDy=0;" parent="1" source="lifC318PrZKDhgt-QXer-13" target="lifC318PrZKDhgt-QXer-1" edge="1">
          <mxGeometry width="100" height="100" relative="1" as="geometry">
            <mxPoint x="360" y="590" as="sourcePoint" />
            <mxPoint x="460" y="490" as="targetPoint" />
          </mxGeometry>
        </mxCell>
        <mxCell id="lifC318PrZKDhgt-QXer-23" value="" style="edgeStyle=entityRelationEdgeStyle;fontSize=12;html=1;endArrow=ERzeroToMany;endFill=1;rounded=0;exitX=1;exitY=0.5;exitDx=0;exitDy=0;exitPerimeter=0;entryX=0;entryY=0.5;entryDx=0;entryDy=0;" parent="1" source="lifC318PrZKDhgt-QXer-16" target="lifC318PrZKDhgt-QXer-2" edge="1">
          <mxGeometry width="100" height="100" relative="1" as="geometry">
            <mxPoint x="360" y="490" as="sourcePoint" />
            <mxPoint x="460" y="390" as="targetPoint" />
          </mxGeometry>
        </mxCell>
        <mxCell id="lifC318PrZKDhgt-QXer-24" value="" style="edgeStyle=entityRelationEdgeStyle;fontSize=12;html=1;endArrow=ERzeroToMany;endFill=1;rounded=0;exitX=0;exitY=0.5;exitDx=0;exitDy=0;exitPerimeter=0;entryX=1;entryY=0.5;entryDx=0;entryDy=0;" parent="1" source="lifC318PrZKDhgt-QXer-16" target="lifC318PrZKDhgt-QXer-3" edge="1">
          <mxGeometry width="100" height="100" relative="1" as="geometry">
            <mxPoint x="360" y="490" as="sourcePoint" />
            <mxPoint x="460" y="390" as="targetPoint" />
          </mxGeometry>
        </mxCell>
        <mxCell id="lifC318PrZKDhgt-QXer-25" value="" style="ellipse;whiteSpace=wrap;html=1;" parent="1" vertex="1">
          <mxGeometry x="309" y="280" width="100" height="50" as="geometry" />
        </mxCell>
        <mxCell id="lifC318PrZKDhgt-QXer-26" value="game_name" style="text;html=1;strokeColor=none;fillColor=none;align=center;verticalAlign=middle;whiteSpace=wrap;rounded=0;" parent="1" vertex="1">
          <mxGeometry x="329" y="290" width="60" height="30" as="geometry" />
        </mxCell>
        <mxCell id="lifC318PrZKDhgt-QXer-28" value="" style="ellipse;whiteSpace=wrap;html=1;" parent="1" vertex="1">
          <mxGeometry x="419" y="280" width="100" height="50" as="geometry" />
        </mxCell>
        <mxCell id="lifC318PrZKDhgt-QXer-29" value="game_price" style="text;html=1;strokeColor=none;fillColor=none;align=center;verticalAlign=middle;whiteSpace=wrap;rounded=0;" parent="1" vertex="1">
          <mxGeometry x="439" y="290" width="60" height="30" as="geometry" />
        </mxCell>
        <mxCell id="lifC318PrZKDhgt-QXer-30" value="" style="ellipse;whiteSpace=wrap;html=1;" parent="1" vertex="1">
          <mxGeometry x="529" y="280" width="100" height="50" as="geometry" />
        </mxCell>
        <mxCell id="lifC318PrZKDhgt-QXer-31" value="game_tags" style="text;html=1;strokeColor=none;fillColor=none;align=center;verticalAlign=middle;whiteSpace=wrap;rounded=0;" parent="1" vertex="1">
          <mxGeometry x="549" y="290" width="60" height="30" as="geometry" />
        </mxCell>
        <mxCell id="lifC318PrZKDhgt-QXer-32" value="" style="edgeStyle=entityRelationEdgeStyle;fontSize=12;html=1;endArrow=ERmandOne;rounded=0;exitX=0.25;exitY=0;exitDx=0;exitDy=0;entryX=0.5;entryY=1;entryDx=0;entryDy=0;" parent="1" source="lifC318PrZKDhgt-QXer-3" target="lifC318PrZKDhgt-QXer-25" edge="1">
          <mxGeometry width="100" height="100" relative="1" as="geometry">
            <mxPoint x="360" y="490" as="sourcePoint" />
            <mxPoint x="360" y="330" as="targetPoint" />
            <Array as="points">
              <mxPoint x="340" y="390" />
              <mxPoint x="390" y="510" />
              <mxPoint x="320" y="390" />
              <mxPoint x="360" y="450" />
              <mxPoint x="400" y="390" />
              <mxPoint x="340" y="460" />
              <mxPoint x="360" y="350" />
              <mxPoint x="380" y="340" />
              <mxPoint x="370" y="380" />
            </Array>
          </mxGeometry>
        </mxCell>
        <mxCell id="lifC318PrZKDhgt-QXer-33" value="" style="edgeStyle=entityRelationEdgeStyle;fontSize=12;html=1;endArrow=ERmandOne;rounded=0;exitX=0;exitY=0;exitDx=0;exitDy=0;entryX=0.5;entryY=1;entryDx=0;entryDy=0;" parent="1" source="lifC318PrZKDhgt-QXer-3" target="lifC318PrZKDhgt-QXer-10" edge="1">
          <mxGeometry width="100" height="100" relative="1" as="geometry">
            <mxPoint x="360" y="390" as="sourcePoint" />
            <mxPoint x="460" y="290" as="targetPoint" />
          </mxGeometry>
        </mxCell>
        <mxCell id="lifC318PrZKDhgt-QXer-36" value="" style="edgeStyle=entityRelationEdgeStyle;fontSize=12;html=1;endArrow=ERmandOne;rounded=0;exitX=0.75;exitY=0;exitDx=0;exitDy=0;entryX=0.5;entryY=1;entryDx=0;entryDy=0;" parent="1" source="lifC318PrZKDhgt-QXer-3" target="lifC318PrZKDhgt-QXer-28" edge="1">
          <mxGeometry width="100" height="100" relative="1" as="geometry">
            <mxPoint x="360" y="390" as="sourcePoint" />
            <mxPoint x="460" y="290" as="targetPoint" />
          </mxGeometry>
        </mxCell>
        <mxCell id="lifC318PrZKDhgt-QXer-37" value="" style="edgeStyle=entityRelationEdgeStyle;fontSize=12;html=1;endArrow=ERoneToMany;rounded=0;exitX=1;exitY=0;exitDx=0;exitDy=0;entryX=0.5;entryY=1;entryDx=0;entryDy=0;" parent="1" source="lifC318PrZKDhgt-QXer-3" target="lifC318PrZKDhgt-QXer-30" edge="1">
          <mxGeometry width="100" height="100" relative="1" as="geometry">
            <mxPoint x="360" y="290" as="sourcePoint" />
            <mxPoint x="460" y="190" as="targetPoint" />
          </mxGeometry>
        </mxCell>
        <mxCell id="lifC318PrZKDhgt-QXer-39" value="" style="ellipse;whiteSpace=wrap;html=1;" parent="1" vertex="1">
          <mxGeometry x="59" y="280" width="100" height="50" as="geometry" />
        </mxCell>
        <mxCell id="lifC318PrZKDhgt-QXer-40" value="Produce_id" style="text;html=1;strokeColor=none;fillColor=none;align=center;verticalAlign=middle;whiteSpace=wrap;rounded=0;" parent="1" vertex="1">
          <mxGeometry x="79" y="290" width="60" height="30" as="geometry" />
        </mxCell>
        <mxCell id="lifC318PrZKDhgt-QXer-41" value="" style="ellipse;whiteSpace=wrap;html=1;" parent="1" vertex="1">
          <mxGeometry x="159" y="440" width="100" height="50" as="geometry" />
        </mxCell>
        <mxCell id="lifC318PrZKDhgt-QXer-42" value="Produce_name" style="text;html=1;strokeColor=none;fillColor=none;align=center;verticalAlign=middle;whiteSpace=wrap;rounded=0;" parent="1" vertex="1">
          <mxGeometry x="179" y="450" width="60" height="30" as="geometry" />
        </mxCell>
        <mxCell id="lifC318PrZKDhgt-QXer-48" value="" style="edgeStyle=entityRelationEdgeStyle;fontSize=12;html=1;endArrow=ERone;endFill=1;rounded=0;entryX=0.5;entryY=1;entryDx=0;entryDy=0;exitX=0.5;exitY=0;exitDx=0;exitDy=0;" parent="1" source="lifC318PrZKDhgt-QXer-1" target="lifC318PrZKDhgt-QXer-39" edge="1">
          <mxGeometry width="100" height="100" relative="1" as="geometry">
            <mxPoint x="79" y="570" as="sourcePoint" />
            <mxPoint x="179" y="470" as="targetPoint" />
            <Array as="points">
              <mxPoint x="99" y="510" />
            </Array>
          </mxGeometry>
        </mxCell>
        <mxCell id="lifC318PrZKDhgt-QXer-49" value="" style="edgeStyle=entityRelationEdgeStyle;fontSize=12;html=1;endArrow=ERone;endFill=1;rounded=0;exitX=1;exitY=0;exitDx=0;exitDy=0;entryX=0.5;entryY=1;entryDx=0;entryDy=0;" parent="1" source="lifC318PrZKDhgt-QXer-1" target="lifC318PrZKDhgt-QXer-41" edge="1">
          <mxGeometry width="100" height="100" relative="1" as="geometry">
            <mxPoint x="360" y="590" as="sourcePoint" />
            <mxPoint x="460" y="490" as="targetPoint" />
          </mxGeometry>
        </mxCell>
        <mxCell id="lifC318PrZKDhgt-QXer-50" value="" style="ellipse;whiteSpace=wrap;html=1;" parent="1" vertex="1">
          <mxGeometry x="559" y="440" width="100" height="50" as="geometry" />
        </mxCell>
        <mxCell id="lifC318PrZKDhgt-QXer-51" value="Player_name" style="text;html=1;strokeColor=none;fillColor=none;align=center;verticalAlign=middle;whiteSpace=wrap;rounded=0;" parent="1" vertex="1">
          <mxGeometry x="579" y="450" width="60" height="30" as="geometry" />
        </mxCell>
        <mxCell id="lifC318PrZKDhgt-QXer-52" value="" style="ellipse;whiteSpace=wrap;html=1;" parent="1" vertex="1">
          <mxGeometry x="669" y="280" width="100" height="50" as="geometry" />
        </mxCell>
        <mxCell id="lifC318PrZKDhgt-QXer-53" value="Player_id" style="text;html=1;strokeColor=none;fillColor=none;align=center;verticalAlign=middle;whiteSpace=wrap;rounded=0;" parent="1" vertex="1">
          <mxGeometry x="689" y="290" width="60" height="30" as="geometry" />
        </mxCell>
        <mxCell id="lifC318PrZKDhgt-QXer-54" value="" style="edgeStyle=entityRelationEdgeStyle;fontSize=12;html=1;endArrow=ERmandOne;rounded=0;entryX=0.5;entryY=1;entryDx=0;entryDy=0;exitX=0.5;exitY=0;exitDx=0;exitDy=0;" parent="1" source="lifC318PrZKDhgt-QXer-2" target="lifC318PrZKDhgt-QXer-52" edge="1">
          <mxGeometry width="100" height="100" relative="1" as="geometry">
            <mxPoint x="360" y="590" as="sourcePoint" />
            <mxPoint x="460" y="490" as="targetPoint" />
          </mxGeometry>
        </mxCell>
        <mxCell id="lifC318PrZKDhgt-QXer-55" value="" style="edgeStyle=entityRelationEdgeStyle;fontSize=12;html=1;endArrow=ERmandOne;rounded=0;entryX=0.5;entryY=1;entryDx=0;entryDy=0;exitX=0;exitY=0;exitDx=0;exitDy=0;" parent="1" source="lifC318PrZKDhgt-QXer-2" target="lifC318PrZKDhgt-QXer-50" edge="1">
          <mxGeometry width="100" height="100" relative="1" as="geometry">
            <mxPoint x="729" y="580" as="sourcePoint" />
            <mxPoint x="729" y="340" as="targetPoint" />
          </mxGeometry>
        </mxCell>
        <mxCell id="zidqJ_piuQlm2H2vpXmz-1" value="" style="ellipse;whiteSpace=wrap;html=1;" vertex="1" parent="1">
          <mxGeometry x="363" y="700" width="100" height="50" as="geometry" />
        </mxCell>
        <mxCell id="zidqJ_piuQlm2H2vpXmz-2" value="game_description" style="text;html=1;strokeColor=none;fillColor=none;align=center;verticalAlign=middle;whiteSpace=wrap;rounded=0;" vertex="1" parent="1">
          <mxGeometry x="383" y="710" width="60" height="30" as="geometry" />
        </mxCell>
        <mxCell id="zidqJ_piuQlm2H2vpXmz-3" value="" style="edgeStyle=entityRelationEdgeStyle;fontSize=12;html=1;endArrow=ERone;endFill=1;rounded=0;exitX=0.5;exitY=1;exitDx=0;exitDy=0;entryX=0.5;entryY=0;entryDx=0;entryDy=0;" edge="1" parent="1" source="lifC318PrZKDhgt-QXer-3" target="zidqJ_piuQlm2H2vpXmz-1">
          <mxGeometry width="100" height="100" relative="1" as="geometry">
            <mxPoint x="360" y="540" as="sourcePoint" />
            <mxPoint x="460" y="440" as="targetPoint" />
          </mxGeometry>
        </mxCell>
        <mxCell id="zidqJ_piuQlm2H2vpXmz-4" value="" style="ellipse;whiteSpace=wrap;html=1;" vertex="1" parent="1">
          <mxGeometry x="59" y="700" width="100" height="50" as="geometry" />
        </mxCell>
        <mxCell id="zidqJ_piuQlm2H2vpXmz-5" value="Producer_description" style="text;html=1;strokeColor=none;fillColor=none;align=center;verticalAlign=middle;whiteSpace=wrap;rounded=0;" vertex="1" parent="1">
          <mxGeometry x="79" y="710" width="60" height="30" as="geometry" />
        </mxCell>
        <mxCell id="zidqJ_piuQlm2H2vpXmz-6" value="" style="edgeStyle=entityRelationEdgeStyle;fontSize=12;html=1;endArrow=ERone;endFill=1;rounded=0;exitX=0.448;exitY=0.987;exitDx=0;exitDy=0;exitPerimeter=0;entryX=0.5;entryY=0;entryDx=0;entryDy=0;" edge="1" parent="1" source="lifC318PrZKDhgt-QXer-1" target="zidqJ_piuQlm2H2vpXmz-4">
          <mxGeometry width="100" height="100" relative="1" as="geometry">
            <mxPoint x="360" y="740" as="sourcePoint" />
            <mxPoint x="210" y="690" as="targetPoint" />
          </mxGeometry>
        </mxCell>
        <mxCell id="zidqJ_piuQlm2H2vpXmz-8" value="" style="ellipse;whiteSpace=wrap;html=1;" vertex="1" parent="1">
          <mxGeometry x="669" y="700" width="100" height="50" as="geometry" />
        </mxCell>
        <mxCell id="zidqJ_piuQlm2H2vpXmz-9" value="Player_comment" style="text;html=1;strokeColor=none;fillColor=none;align=center;verticalAlign=middle;whiteSpace=wrap;rounded=0;" vertex="1" parent="1">
          <mxGeometry x="689" y="710" width="60" height="30" as="geometry" />
        </mxCell>
        <mxCell id="zidqJ_piuQlm2H2vpXmz-10" value="" style="edgeStyle=entityRelationEdgeStyle;fontSize=12;html=1;endArrow=ERzeroToMany;endFill=1;rounded=0;exitX=0.5;exitY=1;exitDx=0;exitDy=0;entryX=0.5;entryY=0;entryDx=0;entryDy=0;" edge="1" parent="1" source="lifC318PrZKDhgt-QXer-2" target="zidqJ_piuQlm2H2vpXmz-8">
          <mxGeometry width="100" height="100" relative="1" as="geometry">
            <mxPoint x="360" y="540" as="sourcePoint" />
            <mxPoint x="460" y="440" as="targetPoint" />
          </mxGeometry>
        </mxCell>
      </root>
    </mxGraphModel>
  </diagram>
</mxfile>
